<?xml version="1.0" encoding="utf-8"?><!-- Uploaded to: SVG Repo, www.svgrepo.com, Generator: SVG Repo Mixer Tools -->
<svg width="800px" height="800px" viewBox="0 0 960 960" fill="none" xmlns="http://www.w3.org/2000/svg">
<path d="M549.621 876.405C542.929 875.206 524.752 883.396 524.053 874.107C526.25 776.23 528.148 678.352 530.845 580.474C533.441 569.288 603.354 573.383 618.135 570.187C640.208 566.792 638.11 537.428 643.204 520.649C643.704 495.68 664.478 447.141 625.227 444.844C609.746 440.749 545.426 450.137 543.229 435.955C525.551 388.315 576.887 382.322 611.244 378.427C646.101 374.931 635.813 297.628 641.207 270.961C645.102 228.614 564.203 239.001 536.637 236.305C485.102 237.104 429.571 257.578 407.798 307.815C388.922 344.37 385.926 385.119 381.931 425.268C378.934 433.858 347.074 429.463 337.386 431.76C290.445 431.661 311.019 520.749 307.224 551.81C309.022 585.468 355.164 574.582 378.135 575.281C390.32 581.373 381.531 635.705 384.128 651.286C384.627 651.286 385.027 651.286 385.526 651.286C382.929 721.398 379.434 791.511 375.239 861.623C374.24 868.115 377.836 882.297 366.75 877.903C324.203 874.707 415.489 866.117 374.24 849.738V878.102L525.351 879.101V864.719C487.898 870.412 615.439 871.311 577.586 874.707C568.098 877.204 558.81 875.606 549.621 876.405Z" fill="white"/>
<path d="M869.219 530.637C866.822 447.241 862.927 363.845 857.134 280.35C832.665 87.4909 697.134 68.6145 531.741 84.6944C471.516 87.5908 410.492 81.2987 349.768 86.7918C296.934 89.4884 240.705 91.9853 194.263 120.45C143.926 149.913 117.658 204.145 107.471 259.776C98.2826 306.417 90.4924 352.959 89.993 400.699C85.998 462.922 88.1952 525.244 93.5885 587.466C97.983 641.698 103.177 696.33 123.351 747.366C144.824 799.301 187.471 831.361 236.909 850.937C278.158 867.316 324.1 874.907 366.647 878.103C377.733 882.497 374.238 868.415 375.137 861.823C379.331 791.711 382.927 721.698 385.424 651.486C384.924 651.486 384.525 651.486 384.025 651.486C381.429 635.806 390.218 581.573 378.033 575.481C354.962 574.782 308.919 585.668 307.122 552.01C310.917 520.949 290.243 431.86 337.284 431.96C346.972 429.763 378.832 434.158 381.828 425.468C385.823 385.319 388.919 344.57 407.696 308.015C429.469 257.778 484.999 237.304 536.535 236.505C564.1 239.101 644.999 228.814 641.104 271.161C635.811 297.828 645.998 375.131 611.141 378.627C576.784 382.522 525.449 388.515 543.127 436.155C545.324 450.337 609.643 440.949 625.124 445.044C664.375 447.341 643.601 495.98 643.102 520.849C638.008 537.628 640.205 566.992 618.033 570.387C603.251 573.683 533.339 569.588 530.742 580.674C528.045 678.552 526.048 776.43 523.95 874.307C524.65 883.596 542.827 875.306 549.519 876.604C558.807 875.805 567.995 877.403 577.484 875.006C615.336 871.611 654.787 870.712 692.24 865.019C748.27 856.43 799.706 836.954 833.663 781.623C878.407 706.817 872.914 614.532 869.219 530.637Z" fill="#000000"/>
</svg>