<?xml version="1.0" ?>
<!-- Uploaded to: SVG Repo, www.svgrepo.com, Generator: SVG Repo Mixer Tools -->
<svg fill="#000000" width="800px" height="800px" viewBox="0 0 32 32" xmlns="http://www.w3.org/2000/svg">
<title/>
<g id="Facebook">
<path d="M26.49,30H5.5A3.35,3.35,0,0,1,3,29a3.35,3.35,0,0,1-1-2.48V5.5A3.35,3.35,0,0,1,3,3,3.35,3.35,0,0,1,5.5,2h21A3.35,3.35,0,0,1,29,3,3.35,3.35,0,0,1,30,5.5v21A3.52,3.52,0,0,1,26.49,30Zm-9.08-4.81V16.8h2.83l.42-3.26H17.41V11.71a2.88,2.88,0,0,1,.09-1,1.09,1.09,0,0,1,.14-.33c.21-.38.76-.57,1.63-.57h1.5V6.94a22,22,0,0,0-2.5-.14,3.83,3.83,0,0,0-3.61,1.86,4.52,4.52,0,0,0-.63,2.4v2.48h-2.8V16.8H14v8.39Z"/>
</g>
</svg>